<?xml version="1.0" standalone="no"?>
<!DOCTYPE svg PUBLIC "-//W3C//DTD SVG 20010904//EN"
 "http://www.w3.org/TR/2001/REC-SVG-20010904/DTD/svg10.dtd">
<svg version="1.0" xmlns="http://www.w3.org/2000/svg"
 width="920.000000pt" height="920.000000pt" viewBox="0 0 920.000000 920.000000"
 preserveAspectRatio="xMidYMid meet">
<metadata>
Created by potrace 1.14, written by Peter Selinger 2001-2017
</metadata>
<g transform="translate(0.000000,920.000000) scale(0.100000,-0.100000)"
fill="#000000" stroke="none">
<path d="M4325 8133 c-27 -2 -117 -12 -199 -23 -468 -62 -933 -225 -1341 -468
-853 -509 -1457 -1360 -1654 -2328 -48 -238 -62 -370 -68 -639 -6 -277 8 -471
53 -712 139 -756 516 -1441 1082 -1965 564 -523 1282 -845 2055 -923 172 -17
479 -19 647 -5 710 62 1360 324 1925 774 129 102 429 402 531 531 278 349 471
703 608 1115 238 722 237 1511 -4 2231 -160 478 -422 921 -758 1282 -599 642
-1365 1025 -2242 1121 -114 13 -510 18 -635 9z m163 -2098 c18 -11 42 -39 54
-64 26 -53 27 -85 31 -786 3 -567 0 -545 85 -587 40 -19 64 -21 300 -25 386
-6 377 0 370 -268 -4 -143 -8 -177 -25 -217 -12 -25 -30 -51 -41 -57 -14 -7
-191 -13 -517 -17 -495 -6 -497 -6 -556 16 -33 13 -76 39 -98 60 -69 67 -69
65 -80 720 -6 322 -13 703 -17 846 -6 245 -5 264 13 305 39 87 77 100 288 96
139 -2 164 -5 193 -22z m2669 -261 c16 -12 34 -38 41 -60 24 -71 4 -122 -117
-301 -59 -87 -198 -292 -309 -456 -123 -181 -200 -303 -195 -310 4 -7 180
-272 391 -591 211 -318 391 -594 399 -614 23 -56 10 -113 -36 -154 -32 -30
-63 -42 -222 -86 -259 -72 -281 -76 -337 -62 -61 15 -122 51 -148 87 -11 15
-43 71 -71 123 -67 125 -370 681 -380 698 -6 10 -88 -104 -263 -364 -140 -208
-268 -393 -283 -411 -16 -18 -46 -38 -67 -44 -33 -10 -44 -9 -83 10 -41 20
-56 38 -135 164 -119 189 -125 201 -130 282 -3 55 1 82 17 127 26 68 19 60
371 458 157 177 286 326 288 329 1 4 -97 209 -218 456 -237 484 -239 489 -204
573 46 111 156 154 291 114 42 -13 84 -34 109 -56 25 -21 116 -148 230 -320
104 -157 192 -286 196 -286 5 0 79 82 213 240 193 227 343 395 371 416 84 65
220 83 281 38z m-4067 -84 c212 -63 394 -195 540 -390 104 -141 184 -327 227
-530 27 -129 24 -419 -5 -557 -81 -376 -304 -686 -597 -831 -297 -148 -608
-132 -892 44 -102 63 -254 215 -327 327 -252 383 -288 917 -90 1336 152 322
424 554 722 616 102 22 326 13 422 -15z"/>
<path d="M2779 5326 c-187 -50 -337 -274 -395 -591 -25 -136 -15 -425 19 -555
61 -235 171 -404 308 -477 47 -24 65 -28 139 -28 75 0 91 3 136 28 166 92 287
310 331 592 22 147 13 386 -21 523 -75 302 -233 495 -421 515 -27 3 -71 0 -96
-7z"/>
</g>
</svg>
